<svg width="83" height="48" viewBox="0 0 83 48" fill="none" xmlns="http://www.w3.org/2000/svg">
<path d="M82.9034 10.2855C82.561 9.71793 82.3327 9.35994 82.0956 8.96704C82.1395 9.01069 82.1834 9.04562 82.2186 9.07181C82.1747 9.01942 82.1132 8.94957 82.0342 8.87972C81.8761 8.64398 81.6917 8.3995 81.4459 8.19868C81.6215 8.41696 81.7883 8.61778 81.92 8.79241C81.7356 8.62652 81.4635 8.46062 81.1474 8.33838C80.8401 8.20741 80.4449 8.15503 80.0674 8.09391C80.0323 7.93674 79.9884 7.77958 79.9357 7.62242H79.883L79.7425 7.60495C78.9786 7.32555 79.0577 7.701 79.3474 8.06771C78.9523 8.06771 78.5923 8.10264 78.3201 8.17249C77.9074 7.43033 76.9153 8.24234 76.3797 7.48272C76.0021 7.77958 73.6841 7.63988 73.4295 8.41696C73.4119 8.32092 73.2539 8.27726 73.5349 8.26853C72.9554 8.19868 72.3583 8.13756 71.849 8.39077L71.5505 7.87562C71.1378 8.16376 70.7339 8.44316 70.3564 8.74875C69.5398 8.55667 69.1535 8.4257 69.8735 7.89309C68.9691 8.37331 68.6091 8.53047 68.2755 8.68763C67.9506 8.83607 67.6433 8.97577 66.9848 9.55203L66.9321 9.20278C66.6511 9.30756 66.3438 9.58696 66.0541 9.79651C65.7819 10.0148 65.5448 10.1807 65.3341 10.1283C63.9556 10.0672 59.9079 12.6691 56.8435 13.4811C57.8357 14.136 55.3421 13.7081 55.5792 14.4677C55.307 14.328 54.8592 14.3979 55.2192 13.9875C53.8934 14.8956 52.91 14.686 52.2163 15.76C51.9441 15.6203 52.3656 15.2972 52.1549 15.2361C52.0671 15.3409 51.7949 15.6465 51.5842 15.5854C51.3734 15.5242 51.7071 15.306 51.8827 15.0964C51.7071 15.1924 51.549 15.2798 51.4173 15.3758C51.3647 15.4282 51.3647 15.4718 51.3383 15.533C51.3032 15.6465 51.2681 15.7949 51.2505 15.9608C51.2066 16.2926 51.1978 16.6942 51.189 17.0871C51.1276 17.0784 51.0749 17.0697 51.0222 17.0609C50.6183 16.6418 50.4778 16.668 49.951 16.8689C49.8896 16.7117 49.7491 16.5196 49.7666 16.4236C49.7666 16.3712 49.8193 16.345 49.9159 16.345C49.9686 16.345 50.03 16.3537 50.1091 16.3799C50.1793 16.3974 50.2232 16.4061 50.3022 16.4236C50.2671 16.3974 50.2057 16.3624 50.1354 16.3188C50.0213 16.2577 49.8808 16.1791 49.7227 16.0918C49.4154 15.9259 49.0467 15.7338 48.6779 15.5592C47.9491 15.2186 47.2555 14.9742 47.115 15.2099C47.0096 15.0091 46.4126 14.8432 46.2457 14.8432C45.1043 14.2844 45.0253 14.1971 43.8663 13.7256L44.1473 13.9526C43.4185 14.363 43.1375 13.6557 42.1893 13.3152L42.2419 13.2628C40.3454 11.8658 41.241 13.062 39.3971 11.6126L39.3357 12.0492C38.7649 12.7826 37.7201 10.7308 36.3767 10.495L36.7104 10.9141C35.9289 10.8967 35.3933 8.96704 34.7787 8.5654C34.6646 8.4257 35.0597 8.55667 35.2792 8.59159C33.7777 7.31682 34.8226 8.9845 33.488 8.51301C33.3739 8.13756 34.1114 7.97167 33.2685 7.52637C32.9348 7.116 30.3534 7.2557 29.4139 6.19922C29.5808 6.52227 29.7388 6.84533 29.0715 6.73183C28.1232 6.3913 26.9555 4.81967 25.8316 5.09907C25.7438 4.98557 25.7262 4.91572 25.7438 4.86333C24.9623 4.7149 23.338 4.10371 22.7585 4.2696C22.7146 2.66304 18.1137 2.92498 18.6844 1.72006L16.4982 0.803279L16.6123 0.707235C16.0328 0.401639 15.585 0.244476 15.225 0.165895L15.3655 0.244476C14.426 -0.148432 13.7411 0.0698504 13.267 0.331789C12.6436 0.392908 13.0387 0.165895 13.0914 0.0785817C12.0202 0.261939 11.3266 0.925517 10.9754 1.55417C10.7734 1.94708 10.7646 2.02566 10.7032 2.18282C10.6417 2.34872 10.6241 2.4273 10.5627 2.64558C10.4573 3.03849 10.3607 3.42267 10.3432 3.8505C10.3256 4.26087 10.3959 4.76728 10.7295 5.29989C10.6154 5.4134 10.5012 5.52691 10.3959 5.64914C10.5363 5.82377 10.7207 6.21668 11.0895 6.75802C11.2036 6.91518 11.309 7.09854 11.4319 7.29063C11.511 7.43033 11.5988 7.57003 11.6866 7.72719C11.8622 8.02406 12.0641 8.34711 12.2836 8.67017C12.7226 9.31629 13.2407 9.95367 13.8553 10.4339C13.8026 10.4514 13.706 10.4688 13.5568 10.3728C15.4796 11.9444 16.2786 15.6552 18.0698 15.3583L19.3869 16.3624C18.1752 14.6686 20.1156 16.1704 19.782 15.3496C20.3703 15.9259 20.739 17.288 20.0454 16.5633L20.0103 16.3886C19.1322 16.6156 21.4063 18.5802 20.9322 18.8858C22.2317 20.4661 23.417 22.0989 24.576 23.7142C25.1292 24.4825 25.6735 25.2509 26.2179 26.0018C26.4726 26.386 26.7008 26.7265 26.9555 27.0583C27.2101 27.0321 27.4384 26.9797 27.6579 26.9098L28.132 27.556C28.132 27.556 28.0618 27.5996 28.0003 27.6083C27.8423 27.5996 27.7106 27.5734 27.6403 27.5298C27.4911 27.4686 27.3506 27.3726 27.254 27.2329C27.1223 27.2766 27.1838 27.3551 27.3506 27.4686C27.3506 27.5909 27.5262 27.8528 27.6315 27.9052C26.9467 28.0886 26.8852 27.9052 26.8325 27.7655C26.7974 27.6083 26.7886 27.4686 26.6833 27.521L26.4638 27.6782H26.6218C26.6833 27.9489 26.9028 28.1497 26.2794 28.4116C25.8228 28.4815 25.8579 28.1759 25.7175 28.2108C25.6823 28.1759 25.6735 28.1584 25.5067 28.2894L23.9702 28.9617L24.7867 29.1276C24.216 29.6777 23.3468 29.7824 24.2863 29.9658C23.5838 29.8086 22.1439 30.4111 20.7742 31.0572C20.4405 31.2144 20.0805 31.4065 19.7908 31.52C19.4483 31.6771 19.1322 31.8168 18.8425 31.9478C18.2718 32.2097 17.8503 32.4106 17.6572 32.4367C17.5606 32.5415 17.4552 32.6376 17.3498 32.7336C17.2533 32.8209 17.1216 32.9257 17.0777 32.9781C16.9547 33.1003 16.8055 33.2138 16.6562 33.3273C16.5069 33.4408 16.3401 33.5369 16.1733 33.6329C16.1294 33.6766 16.0855 33.6417 16.0416 33.6155L15.9099 33.5369C15.8221 33.4845 15.7343 33.4234 15.6465 33.3623C15.7957 33.5718 15.8923 34.279 15.0845 33.729C15.2601 33.4932 15.2689 33.2924 15.2075 33.1265C15.1811 33.0392 15.1284 32.9694 15.0757 32.8908C14.9879 32.8035 14.8562 32.6987 14.7245 32.5939C14.1889 32.1835 13.4953 31.7295 13.3285 31.1358C13.7324 32.0176 10.5451 29.6777 11.23 30.9874C10.4837 30.446 11.4056 30.577 10.9402 29.992C9.87782 29.634 8.86809 28.9617 7.83202 28.2283C7.31398 27.8616 6.77838 27.4774 6.22522 27.1019L5.80377 26.8313L5.59304 26.7003C5.59304 26.7003 5.49646 26.6392 5.40866 26.5955C5.32964 26.5519 5.24183 26.5082 5.16281 26.4733C4.48673 26.1764 3.6965 26.1328 2.99408 26.3336C2.96774 26.4209 3.20481 26.4645 3.29261 26.5519C3.38919 26.6566 3.31017 26.7439 2.86238 27.0146C2.42336 27.0495 1.95801 27.1892 1.53655 27.4599C1.33461 27.5734 1.10632 27.8004 0.957055 27.9227L0.605844 28.1409C0.439018 28.5077 0.535601 28.7783 0.544382 29.049C0.561942 29.3371 0.439018 29.5991 -0.0263367 30.2015C0.158049 30.0269 0.447799 29.8174 0.342435 30.2627C0.16683 30.6992 0.122928 31.2056 0.219511 31.6684C0.316094 32.1399 0.553162 32.5502 0.834131 32.9781L1.7385 34.2703L2.52873 35.3355C3.0731 36.034 3.61748 36.7325 4.17064 37.431C4.7238 38.1295 5.26817 38.8281 5.79499 39.544C5.95304 39.7623 6.1023 39.9806 6.24278 40.1901L6.43595 40.5132C6.43595 40.5656 6.55009 40.618 6.47107 40.6616L6.30425 40.7926C6.16376 40.9061 6.04084 41.0371 5.94425 41.168C5.91791 41.2117 5.90035 41.2292 5.86523 41.3077L5.75987 41.5959C5.68085 41.7618 5.71597 41.788 5.57548 41.884C5.06623 42.6262 4.56575 43.281 4.38136 44.1367C4.57453 43.5953 4.69745 43.5255 4.71502 43.6565C4.74136 43.7874 4.68867 44.1367 4.71502 44.5209C4.7677 44.0144 5.09257 44.4597 5.29451 44.32C5.10135 45.2979 5.435 46.3719 6.11986 47.1053C6.34815 47.0879 6.62034 47.1926 6.94521 47.2799C7.27008 47.3673 7.62129 47.4458 8.03396 47.5419C8.24469 47.5855 8.44664 47.6292 8.6398 47.6728C8.83297 47.7078 8.99101 47.8038 9.14906 47.83C9.45637 47.9086 9.70222 47.8824 9.7988 47.7602C9.48271 47.7427 9.1754 47.6554 8.86809 47.5506C9.56173 47.5069 9.21052 46.9307 8.96467 46.433C8.93833 46.3806 8.92077 46.337 8.89443 46.2933C9.54417 46.4679 9.67587 46.8521 11.0456 46.6775L40.5649 34.768C40.5649 34.768 40.4771 34.8029 40.442 34.8379L40.5473 35.0037C40.9776 34.8204 41.2498 34.5759 40.96 34.6021L42.1366 34.1306C41.522 34.6981 42.4527 35.5014 43.3746 35.7983C43.3395 35.6499 43.2868 35.5189 44.0419 34.995C43.6819 34.9339 42.0312 35.3268 42.6107 34.7593C43.6468 34.1481 43.559 34.5061 44.1648 34.4624C43.6117 34.2703 44.955 33.5194 44.9287 33.013L51.6193 30.315C51.6017 30.3762 51.6193 30.4285 51.7246 30.446L52.3217 30.1317C53.0329 30.2539 51.3559 31.0834 52.2076 30.935C51.4788 31.52 50.7061 32.2796 49.4506 32.559L49.0291 32.1486C49.1169 32.2796 49.9159 32.1311 50.1881 31.8517C49.793 32.2708 48.1159 31.9041 47.8438 32.7685H48.8096C48.072 33.3623 47.2555 34.3052 46.1579 34.5759C46.834 34.8728 46.3774 34.4275 47.3521 34.6981C46.4214 34.2441 50.0213 33.6591 48.6867 33.3186C49.7227 33.6766 50.1179 33.0741 51.3383 33.24C51.2417 33.0916 50.8554 33.0654 51.7598 32.7947C51.7773 32.7336 51.8476 32.6288 51.8915 32.5764C51.9178 32.5764 51.9266 32.5764 51.9529 32.5677H51.9002C51.9002 32.5677 51.9266 32.5241 51.8827 32.5677C51.6456 32.5764 51.4437 32.5677 51.3383 32.4979C51.6193 31.9478 53.0066 31.3977 53.4017 31.0135C53.9548 30.8826 53.2612 31.2842 53.6212 31.3453L54.2007 30.7691C54.4202 31.1009 55.825 30.8127 54.6924 31.52L55.7987 31.0921C56.5275 31.031 57.4494 30.7603 57.9411 30.3849C58.4942 30.2539 59.0825 29.4594 58.7489 29.9221L60.3732 29.0053L60.4259 29.0927C62.1468 28.4553 63.6746 27.0845 65.8872 26.9535C66.4228 26.6304 66.9672 26.2812 67.9682 26.0018L68.2842 26.2375C68.9691 25.8359 70.6198 25.6613 70.7954 25.2072C71.3837 25.4517 72.2442 25.1898 73.2451 24.7008C74.2636 24.2119 75.2734 23.557 75.9846 23.2514L75.8177 22.8323C76.7484 22.3521 77.565 21.6885 78.5221 20.7281L78.2148 20.4749C78.5572 19.9859 79.163 19.5756 79.8215 19.0255C80.4801 18.4841 81.1825 17.7682 81.6391 16.895C81.7181 17.0871 81.4108 17.5062 81.1474 17.7507C82.1922 17.0086 82.5961 15.6727 82.719 14.5376C82.8156 13.8304 82.9122 13.0358 82.9385 12.346C82.9561 11.6475 82.921 10.9927 82.8507 10.3117L82.9034 10.2855ZM70.2423 8.83607C70.1984 9.04562 70.2774 9.30756 70.3827 9.60442C70.0579 9.65681 69.733 9.71793 69.4081 9.78778C69.6715 9.46472 69.9525 9.15039 70.251 8.83607H70.2423ZM50.9871 17.4888C50.9871 17.4888 51.0398 17.5674 51.0486 17.611C51.0661 17.742 50.9608 17.8555 50.7852 17.969C50.8817 17.969 50.9695 17.9515 51.0398 17.9341C51.0398 17.9341 51.0486 17.9428 51.0573 17.9515C51.2329 17.9515 51.312 18.0301 51.3208 18.1436L51.0573 18.2659L50.592 18.0563C50.6534 18.0301 50.7325 17.9952 50.7852 17.969C50.6798 17.969 50.5481 17.9777 50.4164 17.969L50.1003 17.8293C49.9159 17.5674 49.7754 17.3491 49.6701 17.2181C50.1705 17.3316 50.592 17.4189 50.9871 17.4888ZM25.7614 28.3156L25.937 28.3505C25.7087 28.595 25.7438 28.4553 25.7614 28.3156ZM42.3297 34.0695L43.7434 33.502C43.4536 33.7814 42.9268 34.052 42.3297 34.0695ZM44.0331 33.4059C44.0331 33.4059 44.0331 33.3885 44.0331 33.3797L44.1385 33.3361L44.0419 33.4059H44.0331ZM56.5977 30.5071C56.5977 30.5071 56.6153 30.4897 56.6153 30.4722C57.2826 30.3762 57.0455 30.4024 56.5977 30.5071ZM61.4005 27.5472C60.1186 28.2632 60.6278 27.3464 60.4347 27.5385C57.8445 28.4465 58.7576 29.5991 56.4484 29.9658C55.4299 29.8697 56.0533 29.1189 55.7372 28.8831C56.7733 28.2719 57.546 28.4727 58.2835 28.1584L57.2738 28.3243C57.5635 28.0362 58.2572 27.6345 58.705 27.5909C58.5996 27.5821 58.4591 27.5909 58.2835 27.6258L63.499 25.5216C63.1741 26.1502 62.419 26.8924 61.3917 27.5472H61.4005ZM69.4432 23.5396C69.4432 23.4086 69.2501 23.3125 69.1184 23.2602L70.2071 22.8236C69.9788 23.1117 69.7067 23.3737 69.4432 23.5483V23.5396ZM75.7914 21.0686C75.1592 21.1908 74.5095 21.3131 74.2197 21.2607C74.1144 21.2432 74.0441 21.1996 73.9914 21.1472C74.4392 20.9202 74.8607 20.6844 75.247 20.4574L75.6158 21.0162L75.4226 20.3614C75.8529 20.1082 76.2392 19.8462 76.5992 19.593C76.8977 20.0121 77.0997 20.4312 77.0645 20.7106C76.9855 20.7368 76.4148 20.9114 75.8002 21.0686H75.7914ZM81.9288 14.5638L81.5425 14.8083C81.4898 15.2885 81.4108 15.7774 81.2878 16.2664C81.1825 15.7687 81.0069 14.9742 80.7435 14.1883C80.8927 13.7081 81.0157 13.2366 81.121 12.7739C81.1737 12.5556 81.2001 12.3373 81.2176 12.119C81.4547 12.346 81.6654 12.6429 81.7883 13.0358C81.8673 13.2716 81.92 13.5248 81.9376 13.7954C81.9552 14.0836 81.9639 14.3368 81.9376 14.5638H81.9288Z" fill="#FFABAB"/>
</svg>
