<svg width="49" height="15" viewBox="0 0 49 15" fill="none" xmlns="http://www.w3.org/2000/svg">
<path id="Arrow 7" d="M48.3126 7.72246C48.6657 7.29782 48.6077 6.66731 48.1831 6.31419L41.2632 0.559645C40.8385 0.206518 40.208 0.264491 39.8549 0.689131C39.5018 1.11377 39.5598 1.74428 39.9844 2.0974L46.1354 7.21255L41.0203 13.3636C40.6672 13.7882 40.7251 14.4187 41.1498 14.7719C41.5744 15.125 42.2049 15.067 42.5581 14.6424L48.3126 7.72246ZM1 11.3626L0.908439 10.3668C0.376219 10.4157 -0.0234431 10.8745 0.00105061 11.4084C0.0255443 11.9423 0.465535 12.3626 1 12.3626L1 11.3626ZM1.5 11.3626L1.5 10.3626L1 10.3626L1 11.3626L1 12.3626L1.5 12.3626L1.5 11.3626ZM1 11.3626L1.09156 12.3584L47.6353 8.07887L47.5437 7.08307L47.4522 6.08727L0.908439 10.3668L1 11.3626Z" fill="black"/>
</svg>
